<svg xmlns="http://www.w3.org/2000/svg" version="1.1" xmlns:xlink="http://www.w3.org/1999/xlink" xmlns:svgjs="http://svgjs.dev/svgjs" width="1000" height="1000" viewBox="0 0 1000 1000"><rect width="1000" height="1000" fill="#ffffff"></rect><g transform="matrix(0.7,0,0,0.7,150,150)"><svg viewBox="0 0 280 280" data-background-color="#c880ed" preserveAspectRatio="xMidYMid meet" height="1000" width="1000" xmlns="http://www.w3.org/2000/svg" xmlns:xlink="http://www.w3.org/1999/xlink"><g id="tight-bounds" transform="matrix(1,0,0,1,0,0)"><svg viewBox="0 0 280 280" height="280" width="280"><g><svg viewBox="0 0 280 280" height="280" width="280"><g><svg viewBox="0 0 280 280" height="280" width="280"><g id="textblocktransform"><svg viewBox="0 0 280 280" height="280" width="280" id="textblock"><g><svg viewBox="0 0 280 280" height="280" width="280"><g transform="matrix(1,0,0,1,97.26914282046104,90.50252531694167)"><svg viewBox="0 0 85.46171435907792 98.99494936611666" height="98.99494936611666" width="85.46171435907792"><g><svg xmlns="http://www.w3.org/2000/svg" xmlns:xlink="http://www.w3.org/1999/xlink" version="1.1" x="0" y="0" viewBox="9.637999534606934 3.246999979019165 80.7239990234375 93.50699615478516" enable-background="new 0 0 100 100" xml:space="preserve" height="98.99494936611666" width="85.46171435907792" class="icon-o-0" data-fill-palette-color="accent" id="o-0"><g fill="#020f1d" data-fill-palette-color="accent"><g fill="#020f1d" data-fill-palette-color="accent"><polygon points="36.703,11.011 9.638,26.636 9.638,38.757 36.703,23.131 63.767,38.757 63.767,26.636   " fill="#000000" data-fill-palette-color="accent"></polygon></g><g fill="#020f1d" data-fill-palette-color="accent"><polygon points="63.298,89.092 36.233,73.467 36.233,61.348 63.298,76.973 90.362,61.348 90.362,73.467   " fill="#000000" data-fill-palette-color="accent"></polygon></g><g fill="#020f1d" data-fill-palette-color="accent"><polygon points="9.638,42.012 36.703,26.386 47.198,32.446 20.134,48.072 20.134,79.324 9.638,73.264   " fill="#000000" data-fill-palette-color="accent"></polygon></g><g fill="#020f1d" data-fill-palette-color="accent"><polygon points="77.083,18.872 50.018,3.247 39.522,9.307 66.586,24.932 66.586,56.184 77.083,50.124   " fill="#000000" data-fill-palette-color="accent"></polygon></g><g fill="#020f1d" data-fill-palette-color="accent"><polygon points="23.01,81.127 23.011,49.876 33.507,43.816 33.507,75.068 60.571,90.693 50.075,96.754   " fill="#000000" data-fill-palette-color="accent"></polygon></g><g fill="#020f1d" data-fill-palette-color="accent"><polygon points="90.362,58.092 90.362,26.84 79.866,20.78 79.866,52.031 52.802,67.658 63.298,73.719   " fill="#000000" data-fill-palette-color="accent"></polygon></g></g></svg></g></svg></g><g><path d="M24.183 96.175l-1.216 3.375 5.558 2.074 2.499-4.233 1.995 0.787-5.513 14.778-1.254-0.222c-0.287-0.856-0.523-2.01-0.709-3.463v0l-18.946-7.068-1.507 2.604-2.004-0.791 4.718-13.535c1.094-3.007 2.786-5.175 5.078-6.501 2.286-1.329 4.646-1.54 7.081-0.631v0c2.297 0.857 3.836 2.486 4.615 4.888 0.786 2.404 0.654 5.05-0.395 7.938zM11.696 90.885l-0.916 4.119 8.084 3.016c0.445-0.582 0.791-1.202 1.036-1.86v0c0.437-1.17 0.362-2.204-0.224-3.099-0.577-0.9-1.463-1.573-2.658-2.019v0c-0.926-0.346-1.908-0.544-2.944-0.596-1.042-0.054-1.835 0.093-2.378 0.439z" fill="#000000" data-fill-palette-color="primary"></path><path d="M49.585 65.494l1.622-1.684 1.748 1.242-5.456 7.996-10.87-1.316-1.023 1.571 5.802 3.959 2.071-2.128 1.749 1.242-7.987 11.704-1.165-0.516c-0.059-1.205 0.007-2.499 0.198-3.881v0l-16.579-11.314-2.086 2.168-1.757-1.248 7.64-11.747c1.834-2.687 3.997-4.459 6.489-5.313 2.488-0.85 4.732-0.593 6.729 0.77v0c1.247 0.851 2.138 1.993 2.673 3.426 0.535 1.433 0.677 2.978 0.428 4.635v0zM25.474 66.389l6.837 4.666c0.508-0.413 0.93-0.865 1.266-1.357v0c1.499-2.196 1.042-4.117-1.369-5.763v0c-1.633-1.115-3.253-1.557-4.858-1.325v0z" fill="#000000" data-fill-palette-color="primary"></path><path d="M45.9 35.579v0c2.902-2.567 6.171-3.701 9.806-3.403 3.631 0.293 6.836 2.012 9.616 5.154v0c2.687 3.037 3.932 6.271 3.736 9.7-0.2 3.424-1.764 6.43-4.691 9.019v0c-3.002 2.656-6.267 3.875-9.794 3.659-3.527-0.216-6.636-1.845-9.327-4.887v0c-2.709-3.062-3.998-6.395-3.867-9.999 0.126-3.608 1.633-6.689 4.521-9.243zM47.085 40.685v0c-0.057 0.924 0.256 2.074 0.938 3.451 0.677 1.381 1.695 2.839 3.054 4.376v0c2.125 2.402 4.178 3.957 6.161 4.665 1.987 0.713 3.633 0.492 4.939-0.663v0c0.335-0.297 0.627-0.693 0.875-1.188v0c0.033-1.072-0.317-2.355-1.049-3.848-0.728-1.488-1.74-2.965-3.037-4.432v0c-1.859-2.102-3.777-3.585-5.755-4.449-1.978-0.855-3.62-0.705-4.926 0.451v0c-0.465 0.412-0.866 0.957-1.2 1.637z" fill="#000000" data-fill-palette-color="primary"></path><path d="M76.311 15.684v0c2.713-1.386 5.317-2.008 7.813-1.866 2.502 0.139 4.694 0.854 6.575 2.143 1.888 1.286 3.328 2.902 4.323 4.847v0c1.754 3.433 2.087 6.8 0.998 10.102-1.088 3.302-3.447 5.925-7.074 7.869v0l-12.966 6.626-0.775-1.011c0.525-1.086 1.203-2.19 2.032-3.312v0l-9.152-17.909-2.681 0.853-0.945-1.937c3.523-2.033 7.473-4.168 11.852-6.405zM86.302 35.741v0c1.624-0.83 2.551-2.245 2.781-4.246 0.236-2.004-0.226-4.142-1.387-6.414v0c-0.9-1.761-2.101-3.282-3.603-4.562-1.499-1.275-3.031-2.011-4.595-2.21v0l-3.457 2.419 8.03 15.714c0.815-0.124 1.558-0.357 2.231-0.7z" fill="#000000" data-fill-palette-color="primary"></path><path d="M114.209 26.255l3.512-0.33 0.516 2.082-14.218 3.812-0.547-1.15c0.741-0.952 1.634-1.891 2.679-2.814v0l-5.198-19.387-3.033 0.294-0.52-2.091 13.764-3.69 0.547 1.15c-0.741 0.952-1.633 1.894-2.677 2.824v0z" fill="#000000" data-fill-palette-color="primary"></path><path d="M147.42 16.052l-2.925 1.024 0.361 6.584-8.819 3.885-1.279 0.111c-3.355 0.184-6.114-0.344-8.276-1.584-2.168-1.233-3.755-2.838-4.76-4.817-1.012-1.978-1.576-4.035-1.693-6.169v0c-0.224-4.076 0.995-7.541 3.655-10.397 2.66-2.862 6.198-4.415 10.613-4.657v0c3.402-0.187 6.371 0.447 8.906 1.9v0l0.083 0.778c0.123 2.235-0.08 4.527-0.607 6.878v0l-4.792 0.263-1.679-4.996c-1.824-0.449-3.674-0.631-5.55-0.549v0c-0.96 1.043-1.659 2.376-2.099 3.999-0.446 1.63-0.62 3.329-0.524 5.097v0c0.162 2.962 0.993 5.301 2.493 7.019 1.499 1.718 3.393 2.514 5.681 2.388v0l1.328-0.113-0.25-4.563c-1.521-0.646-2.729-1.272-3.626-1.878v0l0.17-1.294 13.448-0.738z" fill="#000000" data-fill-palette-color="primary"></path><path d="M168.042 18.932l-1.512 7.894 3.147 1.204-0.443 2.099-13.956-2.673 0.009-1.274c0.998-0.523 2.198-0.98 3.599-1.372v0l1.162-6.062-4.653-15.125-2.381-0.885 0.444-2.108 11.811 2.262 0 1.276-2.036 0.885 1.959 6.334 0.419 3.621 0.275 0.053 6.292-8.182-2.522-0.952 0.445-2.109 10.315 1.976 0 1.276c-1.036 0.543-2.351 1.033-3.944 1.468v0z" fill="#000000" data-fill-palette-color="primary"></path><path d="M211.974 18.98l0.037 0.017-0.34 0.837c-0.487 1.063-1.2 2.393-2.138 3.991-0.935 1.607-1.743 2.872-2.423 3.795v0l-3.798-1.741 1.94-5.725-2.998-1.804-8.326 18.164 2.998 2.069-0.93 1.933-13.837-6.343 0.312-1.235c0.999-0.255 2.426-0.402 4.281-0.441v0l8.05-17.563-3.396-1.127-3.07 5.207-3.763-1.724c0.592-2.734 1.539-5.523 2.842-8.365v0l0.492-0.977 12.04 5.696z" fill="#000000" data-fill-palette-color="primary"></path><path d="M223.228 48.603l3.342 3.019c-1.528 2.07-3.381 4.222-5.559 6.456v0l-17.937-13.826 0.582-1.133c1.206 0.011 2.494 0.151 3.863 0.422v0l12.254-15.897-2.044-2.208 1.347-1.682 18.088 13.943c-0.545 0.795-1.395 1.81-2.549 3.045-1.145 1.234-2.221 2.269-3.228 3.104v0l-3.556-2.741 1.908-3.755-4.214-3.741-4.552 5.904 6.682 4.316-2.741 3.555-6.088-5.085-4.411 5.723 4.923 3.149z" fill="#000000" data-fill-palette-color="primary"></path><path d="M243.017 74.639l-2.077 3.211-7.902-4.384-0.738-0.86c-2.11-2.641-3.292-5.186-3.546-7.633-0.259-2.444 0.124-4.64 1.15-6.588 1.022-1.953 2.396-3.62 4.124-5.001v0c1.916-1.53 4.046-2.557 6.391-3.078 2.345-0.522 4.702-0.366 7.07 0.469 2.373 0.84 4.516 2.459 6.431 4.855v0c1.968 2.464 3.067 5.22 3.296 8.268v0l-0.492 0.444c-1.623 1.297-3.753 2.549-6.387 3.757v0l-3.028-3.79 3.486-4.58c-0.448-1.31-1.097-2.621-1.949-3.932v0c-2.937-0.219-5.919 0.881-8.946 3.299v0c-2.135 1.705-3.496 3.592-4.084 5.661-0.583 2.064-0.152 4.016 1.292 5.856v0z" fill="#000000" data-fill-palette-color="primary"></path><path d="M253.992 106.171l0.886 3.404-1.971 0.845-6.047-13.411 1.044-0.734c1.059 0.578 2.129 1.308 3.208 2.192v0l7.016-3.163-3.48-7.72-7.51 3.386 0.891 3.413-1.972 0.845-6.05-13.42 1.047-0.725c1.059 0.578 2.129 1.308 3.208 2.192v0l18.298-8.25-0.779-2.947 1.981-0.849 5.857 12.991-1.047 0.725c-1.059-0.578-2.132-1.307-3.218-2.188v0l-7.08 3.192 3.481 7.719 7.655-3.451-0.779-2.947 1.981-0.849 5.857 12.991-1.043 0.734c-1.059-0.578-2.132-1.307-3.218-2.188v0z" fill="#000000" data-fill-palette-color="primary"></path><path d="M23.377 191.321l-1.291-3.348-5.559 2.074 0.885 4.836-2.023 0.712-5.514-14.778 1.093-0.654c0.777 0.459 1.712 1.176 2.803 2.153v0l18.947-7.069-0.568-2.954 2.033-0.716 5.3 13.317c1.144 2.989 1.284 5.735 0.421 8.239-0.856 2.501-2.502 4.206-4.937 5.115v0c-2.297 0.857-4.527 0.634-6.688-0.67-2.168-1.302-3.802-3.387-4.902-6.257zM36.277 187.139l-2.005-3.712-8.084 3.016c0.045 0.732 0.19 1.427 0.436 2.083v0c0.437 1.17 1.17 1.902 2.199 2.196 1.025 0.302 2.136 0.23 3.331-0.216v0c0.926-0.346 1.798-0.838 2.614-1.478 0.823-0.642 1.326-1.272 1.509-1.889z" fill="#000000" data-fill-palette-color="primary"></path><path d="M38.23 229.45l0.976 2.124-1.794 1.176-5.456-7.996 5.187-9.642-1.089-1.526-5.803 3.96 1.228 2.705-1.794 1.176-7.987-11.704 0.904-0.897c1.144 0.384 2.324 0.917 3.542 1.599v0l16.579-11.314-1.258-2.733 1.803-1.181 8.153 11.397c1.834 2.687 2.695 5.347 2.582 7.979-0.116 2.627-1.173 4.622-3.17 5.985v0c-1.247 0.851-2.635 1.264-4.164 1.241-1.529-0.024-3.02-0.455-4.473-1.292v0zM46.185 206.672l-6.837 4.666c0.199 0.624 0.467 1.182 0.802 1.673v0c1.499 2.196 3.454 2.472 5.865 0.826v0c1.633-1.115 2.635-2.461 3.006-4.041v0z" fill="#000000" data-fill-palette-color="primary"></path><path d="M68.925 225.584v0c2.902 2.567 4.427 5.673 4.575 9.317 0.152 3.64-1.162 7.031-3.941 10.174v0c-2.687 3.037-5.743 4.668-9.171 4.892-3.423 0.219-6.598-0.966-9.524-3.555v0c-3.002-2.656-4.612-5.747-4.828-9.274-0.216-3.527 1.021-6.812 3.712-9.854v0c2.709-3.062 5.859-4.749 9.452-5.059 3.597-0.315 6.838 0.804 9.725 3.359zM64.002 227.383v0c-0.924 0.057-2.028 0.508-3.31 1.353-1.288 0.841-2.611 2.029-3.97 3.566v0c-2.125 2.402-3.417 4.63-3.878 6.684-0.465 2.059-0.045 3.666 1.26 4.821v0c0.335 0.297 0.764 0.538 1.287 0.723v0c1.068-0.099 2.299-0.602 3.691-1.511 1.388-0.904 2.731-2.089 4.028-3.555v0c1.859-2.102 3.097-4.187 3.713-6.255 0.607-2.068 0.257-3.679-1.049-4.834v0c-0.465-0.412-1.056-0.742-1.772-0.992z" fill="#000000" data-fill-palette-color="primary"></path><path d="M91.697 241.402v0c2.713 1.386 4.742 3.132 6.089 5.239 1.353 2.109 2.058 4.304 2.116 6.584 0.064 2.283-0.402 4.397-1.396 6.343v0c-1.754 3.433-4.288 5.675-7.601 6.727-3.314 1.052-6.821 0.678-10.522-1.123v0l-12.966-6.625 0.365-1.221c1.188-0.211 2.48-0.308 3.875-0.293v0l9.151-17.909-2.262-1.673 1.017-1.901c3.711 1.664 7.756 3.615 12.134 5.852zM81.296 261.25v0c1.624 0.83 3.314 0.752 5.07-0.233 1.762-0.982 3.224-2.61 4.386-4.883v0c0.9-1.761 1.429-3.625 1.586-5.592 0.155-1.962-0.146-3.634-0.901-5.019v0l-3.986-1.384-8.03 15.714c0.577 0.588 1.202 1.053 1.875 1.397z" fill="#000000" data-fill-palette-color="primary"></path><path d="M110.752 273.831l3.206 1.472-0.594 2.061-14.219-3.813 0.102-1.269c1.118-0.454 2.36-0.82 3.728-1.096v0l5.198-19.387-2.774-1.263 0.597-2.071 13.764 3.691-0.102 1.269c-1.118 0.454-2.361 0.823-3.731 1.106v0z" fill="#000000" data-fill-palette-color="primary"></path><path d="M147.492 269.82l-3.019 0.698-0.361 6.584-9.191 2.898-1.283-0.03c-3.355-0.184-6.04-1.01-8.053-2.479-2.021-1.462-3.422-3.232-4.205-5.309-0.789-2.077-1.125-4.183-1.009-6.318v0c0.224-4.076 1.814-7.387 4.77-9.935 2.957-2.554 6.643-3.71 11.059-3.468v0c3.402 0.187 6.284 1.141 8.645 2.863v0l-0.003 0.783c-0.123 2.235-0.574 4.491-1.355 6.77v0l-4.792-0.263-1.123-5.15c-1.764-0.645-3.583-1.03-5.457-1.152v0c-1.068 0.932-1.909 2.18-2.523 3.745-0.621 1.572-0.981 3.241-1.078 5.009v0c-0.162 2.962 0.408 5.378 1.71 7.25 1.302 1.871 3.098 2.87 5.386 2.995v0l1.333 0.033 0.25-4.563c-1.441-0.808-2.574-1.563-3.399-2.264v0l0.311-1.267 13.448 0.737z" fill="#000000" data-fill-palette-color="primary"></path><path d="M167.529 265.584l1.512 7.893 3.369-0.043 0.364 2.114-13.956 2.673-0.462-1.187c0.734-0.855 1.68-1.723 2.838-2.604v0l-1.162-6.063-9.913-12.334-2.54 0.058-0.366-2.124 11.811-2.262 0.472 1.185-1.566 1.575 4.162 5.161 1.727 3.21 0.276-0.053 2.822-9.928-2.695 0.047-0.366-2.123 10.315-1.976 0.471 1.185c-0.762 0.887-1.803 1.828-3.122 2.822v0z" fill="#000000" data-fill-palette-color="primary"></path><path d="M197.952 237.623l0.037-0.016 0.412 0.803c0.487 1.063 1.03 2.471 1.628 4.225 0.607 1.757 1.038 3.195 1.293 4.313v0l-3.798 1.741-3.071-5.207-3.323 1.094 8.326 18.164 3.524-0.921 0.857 1.966-13.837 6.343-0.732-1.043c0.459-0.923 1.279-2.1 2.46-3.53v0l-8.05-17.564-3.071 1.838 1.941 5.725-3.763 1.724c-1.685-2.233-3.179-4.771-4.482-7.613v0l-0.418-1.01 12.173-5.403z" fill="#000000" data-fill-palette-color="primary"></path><path d="M223.9 239.464l3.77-2.463c1.613 2.004 3.222 4.344 4.829 7.02v0l-17.937 13.826-0.947-0.852c0.317-1.164 0.781-2.373 1.391-3.628v0l-12.254-15.897-2.655 1.414-1.284-1.731 18.088-13.942c0.63 0.729 1.395 1.81 2.296 3.241 0.902 1.422 1.629 2.726 2.18 3.911v0l-3.556 2.741-3.145-2.801-4.692 3.123 4.552 5.905 5.874-5.363 2.741 3.556-6.468 4.593 4.411 5.722 4.3-3.959z" fill="#000000" data-fill-palette-color="primary"></path><path d="M247.714 216.308l3.591 1.317-2.531 8.675-0.676 0.91c-2.11 2.641-4.331 4.356-6.662 5.144-2.326 0.792-4.553 0.903-6.679 0.333-2.131-0.565-4.06-1.538-5.788-2.918v0c-1.916-1.53-3.387-3.381-4.414-5.553-1.027-2.172-1.395-4.505-1.103-6.999 0.296-2.5 1.4-4.948 3.314-7.344v0c1.968-2.464 4.414-4.144 7.337-5.041v0l0.542 0.381c1.623 1.297 3.315 3.097 5.074 5.401v0l-3.027 3.789-5.237-2.387c-1.178 0.726-2.314 1.649-3.405 2.769v0c0.435 2.913 2.166 5.578 5.193 7.997v0c2.135 1.705 4.276 2.616 6.423 2.732 2.142 0.112 3.951-0.739 5.426-2.553v0z" fill="#000000" data-fill-palette-color="primary"></path><path d="M266.159 186.51l1.964-2.918 1.939 0.918-6.047 13.41-1.241-0.295c-0.268-1.176-0.429-2.462-0.482-3.856v0l-7.016-3.163-3.48 7.719 7.509 3.386 1.968-2.927 1.939 0.918-6.051 13.42-1.237-0.305c-0.268-1.176-0.429-2.462-0.481-3.856v0l-18.298-8.25-1.693 2.534-1.947-0.922 5.857-12.99 1.236 0.305c0.268 1.176 0.432 2.463 0.491 3.86v0l7.08 3.192 3.481-7.72-7.656-3.451-1.692 2.534-1.948-0.922 5.857-12.99 1.241 0.296c0.268 1.176 0.432 2.463 0.491 3.859v0z" fill="#000000" data-fill-palette-color="primary"></path><path d="M3.918 143.598c0-5.651 4.581-10.232 10.232-10.233 5.651 0 10.232 4.581 10.232 10.233 0 5.651-4.581 10.232-10.232 10.232-5.651 0-10.232-4.581-10.232-10.232z" fill="#000000" data-fill-palette-color="primary"></path><path d="M256.45 143.598c0-5.651 4.581-10.232 10.232-10.233 5.651 0 10.232 4.581 10.232 10.233 0 5.651-4.581 10.232-10.232 10.232-5.651 0-10.232-4.581-10.232-10.232z" fill="#000000" data-fill-palette-color="primary"></path></g></svg></g></svg></g></svg></g></svg></g><defs></defs></svg><rect width="280" height="280" fill="none" stroke="none" visibility="hidden"></rect></g></svg></g></svg>