<svg xmlns="http://www.w3.org/2000/svg" width="42" height="48" viewBox="0 0 42 48">
  <metadata><?xpacket begin="﻿" id="W5M0MpCehiHzreSzNTczkc9d"?>
<x:xmpmeta xmlns:x="adobe:ns:meta/" x:xmptk="Adobe XMP Core 5.6-c142 79.160924, 2017/07/13-01:06:39        ">
   <rdf:RDF xmlns:rdf="http://www.w3.org/1999/02/22-rdf-syntax-ns#">
      <rdf:Description rdf:about=""/>
   </rdf:RDF>
</x:xmpmeta>
                                                                                                    
                                                                                                    
                                                                                                    
                                                                                                    
                                                                                                    
                                                                                                    
                                                                                                    
                                                                                                    
                                                                                                    
                                                                                                    
                                                                                                    
                                                                                                    
                                                                                                    
                                                                                                    
                                                                                                    
                                                                                                    
                                                                                                    
                                                                                                    
                                                                                                    
                                                                                                    
                           
<?xpacket end="w"?></metadata>
<defs>
    <style>
      .cls-1 {
        fill: #fff;
        fill-rule: evenodd;
      }
    </style>
  </defs>
  <path id="Forma_1" data-name="Forma 1" class="cls-1" d="M37.978,16.757a1.507,1.507,0,1,0-1.6,2.556,5.562,5.562,0,0,1,0,9.453L11.61,44.167a5.531,5.531,0,0,1-5.666.144,5.5,5.5,0,0,1-2.875-4.87V8.638a5.5,5.5,0,0,1,2.875-4.87,5.53,5.53,0,0,1,5.666.144l14.419,8.965a1.507,1.507,0,1,0,1.6-2.556L13.208,1.356a8.52,8.52,0,0,0-8.729-.222,8.472,8.472,0,0,0-4.43,7.5v30.8a8.471,8.471,0,0,0,4.43,7.5,8.52,8.52,0,0,0,8.729-.222l24.77-15.4A8.569,8.569,0,0,0,37.978,16.757Z"/>
</svg>
